PathFileType	4	(X/Y/Z)	C:/Users/beibeiliu/ov580/test_trc/capture2\sequence.8_training_dense_right.trc
DataRate	CameraRate	NumFrames	NumMarkers	Units	OrigDataRate	OrigDataStartFrame	OrigNumFrames
120	120	10	19	mm	120	51	400
Frame#	Time	ThumbCMC			ThumbMCP			ThumbIP			ThumbTip			IndexMCP			IndexPIP			IndexTip			MiddleMCP			MiddlePIP			MiddleTip			RingMCP			RingPIP			RingTip			PinkyMCP			PinkyPIP			PinkyTip			BackHand1			BackHand2			BackHand3	
		X0	Y0	Z0	X1	Y1	Z1	X2	Y2	Z2	X3	Y3	Z3	X4	Y4	Z4	X5	Y5	Z5	X6	Y6	Z6	X7	Y7	Z7	X8	Y8	Z8	X9	Y9	Z9	X10	Y10	Z10	X11	Y11	Z11	X12	Y12	Z12	X13	Y13	Z13	X14	Y14	Z14	X15	Y15	Z15	X16	Y16	Z16	X17	Y17	Z17	X18	Y18	Z18	
50	0.416667	103.84	19.5561	-25.7634	86.0524	2.11727	-35.2831	73.8682	-9.87514	-51.0865	60.0506	-19.8725	-66.9264	123.239	-3.9243	-92.7337	120.204	-15.7579	-111.556	122.59	-21.1175	-132.072	153.392	-5.73827	-95.9743	157.059	-16.6471	-112.787	169.48	-24.8769	-136.471	178.867	-8.8402	-80.9369	185.629	-19.9547	-97.0674	199.497	-30.6293	-119.799	194.081	-14.5484	-59.3684	205.697	-27.7061	-69.521	226.424	-34.9674	-75.8971	166.219	22.8518	-46.8282	163.666	39.81	-22.1506	136.885	35.3869	-37.1718	
51	0.425	103.614	26.9746	-22.5572	89.7879	8.0561	-39.4112	77.1375	-3.46273	-54.0421	62.375	-11.4989	-70.1563	126.628	6.55235	-91.5992	123.708	-5.38136	-110.79	121.43	-8.66681	-135.391	153.777	4.75909	-92.8192	157.398	-6.27623	-114.088	163.979	-12.9542	-142.718	179.251	-1.04123	-81.1555	184.382	-12.3683	-103.995	198.444	-20.5471	-123.263	194.797	-8.82512	-62.9752	206.753	-20.8747	-67.7653	226.775	-27.9172	-84.1529	167.861	28.8743	-46.5586	168.329	43.9083	-18.7909	136.104	42.5086	-38.4858	
52	0.433333	105.608	34.5146	-25.5009	88.5337	16.3067	-38.9549	78.1149	4.30966	-57.8189	62.303	-1.34072	-70.1138	127.393	14.5383	-96.7684	121.152	6.94995	-117.242	126.609	3.02427	-142.083	156.581	12.9211	-97.6524	156.461	3.33476	-117.22	167.753	-2.65423	-143.057	177.187	6.04629	-86.844	185.211	-3.89916	-103.976	197.976	-11.1473	-126.32	193.547	-1.59578	-64.4267	205.436	-14.8293	-74.1587	223.467	-20.5593	-86.3223	171.406	35.8357	-45.4927	165.249	50.2186	-16.9962	139.845	47.4848	-38.0972	
53	0.441667	107.107	41.309	-26.2529	87.6931	25.4848	-40.0094	75.9376	14.8794	-57.1535	60.1912	7.7261	-75.75	127.934	25.2833	-95.5305	125.761	17.033	-115.892	127.934	14.0442	-139.891	153.916	21.8465	-98.2041	160.682	12.2755	-122.679	168.762	7.61035	-144.305	180.034	12.0504	-88.6724	186.874	3.44393	-104.595	194.484	-3.25863	-130.616	194.581	3.68126	-64.2029	206.196	-9.64824	-72.6161	220.757	-14.1081	-88.9407	171.772	42.4345	-44.4597	167.714	54.649	-19.2127	138.723	55.8596	-40.6392	
54	0.45	111.916	47.2909	-27.4788	93.2949	33.0939	-41.004	77.4317	24.0584	-63.1041	64.2959	18.5889	-75.2815	130.539	32.8676	-101.686	125.218	27.1829	-123.199	128.017	26.3989	-142.426	157.195	28.6909	-101.985	161.703	20.5392	-125.71	166.076	17.46	-147.098	178.172	18.208	-91.7005	189.051	9.5422	-106.538	196.303	3.98155	-129.06	196.169	6.34371	-69.7513	206.196	-6.88206	-79.5199	226.04	-13.2548	-93.3855	171.372	45.1386	-48.7248	171.737	57.6486	-19.2423	142.252	61.1019	-44.1352	
55	0.458333	115.517	53.8635	-29.8779	95.8734	41.3763	-46.9196	79.146	35.4302	-62.9756	65.7298	29.0746	-82.1943	131.096	41.9477	-101.496	129.381	35.6494	-123.062	130.9	36.3377	-143.222	160.369	35.3803	-101.982	163.452	28.1525	-124.632	172.188	24.6769	-151.653	182.044	23.2431	-88.6551	186.364	15.1443	-112.865	200.764	8.65484	-131.438	194.634	10.6821	-69.3659	207.548	-4.75553	-79.5692	221.342	-9.45008	-95.0945	176.609	49.2114	-49.4124	174.353	59.8198	-18.8872	144.062	66.5316	-43.7808	
56	0.466667	117.909	61.4272	-31.1722	96.0978	50.1621	-47.1555	81.9815	45.7145	-67.0188	66.7474	42.9833	-82.7006	135.962	48.9828	-102.687	129.584	45.485	-121.128	132.173	46.8935	-146.463	162.397	41.406	-101.84	166.495	33.5595	-122.718	172.154	31.3816	-150.205	179.577	28.0894	-90.4833	190.854	18.0316	-110.144	200.689	11.4523	-130.398	193.52	12.9777	-72.3226	205.56	-2.42023	-79.768	222.352	-12.1105	-92.8206	179.26	51.0022	-46.2432	177.585	62.5594	-19.877	151.144	69.6361	-42.9007	
57	0.475	119.789	69.1453	-30.9531	97.7497	60.5972	-50.8164	80.7001	57.8983	-71.3983	70.9638	55.9478	-82.6555	137.027	58.5428	-101.43	134.77	54.3023	-124.186	137.283	54.0696	-148.642	166.1	45.0375	-102.534	168.216	40.0903	-127.222	175.74	36.1251	-150.034	183.192	30.0275	-89.9155	189.723	21.8951	-109.857	197.462	16.6928	-134.196	196.749	12.7606	-72.1342	200.887	0.599072	-83.9116	220.571	-10.9817	-97.9595	178.733	56.0971	-47.7102	180.69	63.4238	-22.5036	155.376	74.3796	-42.9085	
58	0.483333	124.044	76.2772	-34.5123	101.083	70.9176	-48.4429	84.5135	72.2707	-68.2169	72.8666	70.2243	-85.6554	142.103	63.7804	-102.205	135.708	63.5595	-126.5	139.282	63.4673	-147.86	167.502	50.4613	-101.753	173.024	42.7324	-128.241	176.671	42.3532	-154.766	180.878	35.2656	-93.192	191.087	21.8545	-111.907	197.898	17.6174	-132.474	194.366	14.9156	-71.9493	200.173	0.0721449	-83.7643	216.718	-10.5378	-96.0836	182.652	55.6837	-45.9351	183.382	66.7799	-17.7342	159.001	80.0572	-41.5216	
59	0.491667	127.923	81.2471	-34.0491	103.24	81.5387	-49.9201	91.421	78.5024	-72.9016	77.1552	82.6122	-85.7031	143.231	71.1663	-102.788	141.817	67.5024	-125.318	148.069	67.5884	-149.038	169.491	51.7204	-105.879	173.206	45.8217	-128.204	179.227	43.0768	-150.701	184.23	33.8159	-93.057	191.087	23.0087	-111.529	199.35	15.1148	-131.627	191.939	15.4648	-70.4758	196.829	-1.1632	-81.6984	207.685	-13.5626	-96.5331	183.055	55.8146	-51.0452	185.22	67.0842	-18.6558	163.875	82.5473	-41.2325	
